<?xml version="1.0" encoding="UTF-8" standalone="no"?>
<!DOCTYPE svg PUBLIC "-//W3C//DTD SVG 1.1//EN"
 "http://www.w3.org/Graphics/SVG/1.1/DTD/svg11.dtd">
<!-- Generated by graphviz version 2.50.0 (20211204.2007)
 -->
<!-- Title: models_diagram Pages: 1 -->
<svg width="672pt" height="273pt"
 viewBox="0.00 0.00 672.00 273.00" xmlns="http://www.w3.org/2000/svg" xmlns:xlink="http://www.w3.org/1999/xlink">
<g id="graph0" class="graph" transform="scale(1 1) rotate(0) translate(4 269)">
<title>models_diagram</title>
<polygon fill="transparent" stroke="transparent" points="-4,4 -4,-269 668,-269 668,4 -4,4"/>
<!-- _diagram_info -->
<g id="node1" class="node">
<title>_diagram_info</title>
<text text-anchor="start" x="8" y="-236.1" font-family="Times,serif" font-size="13.00">Models diagram</text>
<text text-anchor="start" x="8" y="-222.1" font-family="Times,serif" font-size="13.00">Date: Feb 03 2022 &#45; 19:05</text>
<text text-anchor="start" x="8" y="-208.1" font-family="Times,serif" font-size="13.00">Migration version: 20220203213154</text>
<text text-anchor="start" x="8" y="-194.1" font-family="Times,serif" font-size="13.00">Generated by RailRoady 1.6.0</text>
<text text-anchor="start" x="8" y="-180.1" font-family="Times,serif" font-size="13.00">http://railroady.prestonlee.com</text>
</g>
<!-- ApplicationRecord -->
<g id="node2" class="node">
<title>ApplicationRecord</title>
<ellipse fill="none" stroke="black" cx="309" cy="-211.5" rx="77.19" ry="18"/>
<text text-anchor="middle" x="309" y="-207.8" font-family="Times,serif" font-size="14.00">ApplicationRecord</text>
</g>
<!-- ShipmentBatch -->
<g id="node3" class="node">
<title>ShipmentBatch</title>
<path fill="none" stroke="black" d="M416,-158.5C416,-158.5 652,-158.5 652,-158.5 658,-158.5 664,-164.5 664,-170.5 664,-170.5 664,-252.5 664,-252.5 664,-258.5 658,-264.5 652,-264.5 652,-264.5 416,-264.5 416,-264.5 410,-264.5 404,-258.5 404,-252.5 404,-252.5 404,-170.5 404,-170.5 404,-164.5 410,-158.5 416,-158.5"/>
<text text-anchor="middle" x="534" y="-249.3" font-family="Times,serif" font-size="14.00">ShipmentBatch</text>
<polyline fill="none" stroke="black" points="404,-241.5 664,-241.5 "/>
<text text-anchor="start" x="412" y="-226.3" font-family="Times,serif" font-size="14.00">id :uuid</text>
<text text-anchor="start" x="412" y="-211.3" font-family="Times,serif" font-size="14.00">state :character varying</text>
<text text-anchor="start" x="412" y="-196.3" font-family="Times,serif" font-size="14.00">url :character varying</text>
<text text-anchor="start" x="412" y="-181.3" font-family="Times,serif" font-size="14.00">created_at :timestamp(6) without time zone</text>
<text text-anchor="start" x="412" y="-166.3" font-family="Times,serif" font-size="14.00">updated_at :timestamp(6) without time zone</text>
</g>
<!-- ShipmentLabel -->
<g id="node4" class="node">
<title>ShipmentLabel</title>
<path fill="none" stroke="black" d="M416,-0.5C416,-0.5 652,-0.5 652,-0.5 658,-0.5 664,-6.5 664,-12.5 664,-12.5 664,-109.5 664,-109.5 664,-115.5 658,-121.5 652,-121.5 652,-121.5 416,-121.5 416,-121.5 410,-121.5 404,-115.5 404,-109.5 404,-109.5 404,-12.5 404,-12.5 404,-6.5 410,-0.5 416,-0.5"/>
<text text-anchor="middle" x="534" y="-106.3" font-family="Times,serif" font-size="14.00">ShipmentLabel</text>
<polyline fill="none" stroke="black" points="404,-98.5 664,-98.5 "/>
<text text-anchor="start" x="412" y="-83.3" font-family="Times,serif" font-size="14.00">id :uuid</text>
<text text-anchor="start" x="412" y="-68.3" font-family="Times,serif" font-size="14.00">shipment_batch_id :uuid</text>
<text text-anchor="start" x="412" y="-53.3" font-family="Times,serif" font-size="14.00">carrier_name :character varying</text>
<text text-anchor="start" x="412" y="-38.3" font-family="Times,serif" font-size="14.00">shipment_details :jsonb</text>
<text text-anchor="start" x="412" y="-23.3" font-family="Times,serif" font-size="14.00">created_at :timestamp(6) without time zone</text>
<text text-anchor="start" x="412" y="-8.3" font-family="Times,serif" font-size="14.00">updated_at :timestamp(6) without time zone</text>
</g>
<!-- ShipmentBatch&#45;&gt;ShipmentLabel -->
<g id="edge1" class="edge">
<title>ShipmentBatch&#45;&gt;ShipmentLabel</title>
<path fill="none" stroke="#de779f" d="M534,-148.05C534,-142.74 534,-137.35 534,-131.99"/>
<polygon fill="#de779f" stroke="#de779f" points="534,-148.14 529.5,-158.14 534,-153.14 534,-158.14 534,-158.14 534,-158.14 534,-153.14 538.5,-158.14 534,-148.14 534,-148.14"/>
<polygon fill="#de779f" stroke="#de779f" points="534,-131.74 538.5,-121.74 534,-126.74 534,-121.74 534,-121.74 534,-121.74 534,-126.74 529.5,-121.74 534,-131.74 534,-131.74"/>
</g>
</g>
</svg>
